HIERARCHY
ROOT Hips
{
	OFFSET 0.000000 0.000000 0.000000
	CHANNELS 6 Xposition Yposition Zposition Zrotation Yrotation Xrotation 
	JOINT LHipJoint
	{
		OFFSET 0.000000 0.000000 0.000000
		CHANNELS 3 Zrotation Yrotation Xrotation
		JOINT LeftUpLeg
		{
			OFFSET 1.363060 -1.794630 0.839290
			CHANNELS 3 Zrotation Yrotation Xrotation
			JOINT LeftLeg
			{
				OFFSET 2.448110 -6.726130 0.000000
				CHANNELS 3 Zrotation Yrotation Xrotation
				JOINT LeftFoot
				{
					OFFSET 2.562200 -7.039590 0.000000
					CHANNELS 3 Zrotation Yrotation Xrotation
					JOINT LeftToeBase
					{
						OFFSET 0.157640 -0.433110 2.322550
						CHANNELS 3 Zrotation Yrotation Xrotation
						End Site
						{
							OFFSET 0.000000 0.000000 0.000000
						}
					}
				}
			}
		}
	}
	JOINT RHipJoint
	{
		OFFSET 0.000000 0.000000 0.000000
		CHANNELS 3 Zrotation Yrotation Xrotation
		JOINT RightUpLeg
		{
			OFFSET -1.305520 -1.794630 0.839290
			CHANNELS 3 Zrotation Yrotation Xrotation
			JOINT RightLeg
			{
				OFFSET -2.542530 -6.985550 0.000000
				CHANNELS 3 Zrotation Yrotation Xrotation
				JOINT RightFoot
				{
					OFFSET -2.568260 -7.056230 0.000000
					CHANNELS 3 Zrotation Yrotation Xrotation
					JOINT RightToeBase
					{
						OFFSET -0.164730 -0.452590 2.363150
						CHANNELS 3 Zrotation Yrotation Xrotation
						End Site
						{
							OFFSET 0.000000 0.000000 0.000000
						}
					}
				}
			}
		}
	}
	JOINT LowerBack
	{
		OFFSET 0.000000 0.000000 0.000000
		CHANNELS 3 Zrotation Yrotation Xrotation
		JOINT Spine
		{
			OFFSET 0.028270 2.035590 -0.193380
			CHANNELS 3 Zrotation Yrotation Xrotation
			JOINT Spine1
			{
				OFFSET 0.056720 2.048850 -0.042750
				CHANNELS 3 Zrotation Yrotation Xrotation
				JOINT Neck
				{
					OFFSET 0.000000 0.000000 0.000000
					CHANNELS 3 Zrotation Yrotation Xrotation
					JOINT Neck1
					{
						OFFSET -0.054170 1.746240 0.172020
						CHANNELS 3 Zrotation Yrotation Xrotation
						JOINT Head
						{
							OFFSET 0.104070 1.761360 -0.123970
							CHANNELS 3 Zrotation Yrotation Xrotation
							End Site
							{
								OFFSET 0.000000 0.000000 0.000000
							}
						}
					}
				}
				JOINT LeftShoulder
				{
					OFFSET 0.000000 0.000000 0.000000
					CHANNELS 3 Zrotation Yrotation Xrotation
					JOINT LeftArm
					{
						OFFSET 3.362410 1.200890 -0.311210
						CHANNELS 3 Zrotation Yrotation Xrotation
						JOINT LeftForeArm
						{
							OFFSET 4.983000 -0.000000 -0.000000
							CHANNELS 3 Zrotation Yrotation Xrotation
							JOINT LeftHand
							{
								OFFSET 3.483560 -0.000000 -0.000000
								CHANNELS 3 Zrotation Yrotation Xrotation
								JOINT LeftFingerBase
								{
									OFFSET 0.000000 0.000000 0.000000
									CHANNELS 3 Zrotation Yrotation Xrotation
									JOINT LeftHandIndex1
									{
										OFFSET 0.715260 -0.000000 -0.000000
										CHANNELS 3 Zrotation Yrotation Xrotation
										End Site
										{
											OFFSET 0.000000 0.000000 0.000000
										}
									}
								}
								JOINT LThumb
								{
									OFFSET 0.000000 0.000000 0.000000
									CHANNELS 3 Zrotation Yrotation Xrotation
									End Site
									{
										OFFSET 0.000000 0.000000 0.000000
									}
								}
							}
						}
					}
				}
				JOINT RightShoulder
				{
					OFFSET 0.000000 0.000000 0.000000
					CHANNELS 3 Zrotation Yrotation Xrotation
					JOINT RightArm
					{
						OFFSET -3.136600 1.374050 -0.404650
						CHANNELS 3 Zrotation Yrotation Xrotation
						JOINT RightForeArm
						{
							OFFSET -5.241900 -0.000000 -0.000000
							CHANNELS 3 Zrotation Yrotation Xrotation
							JOINT RightHand
							{
								OFFSET -3.444170 -0.000000 -0.000000
								CHANNELS 3 Zrotation Yrotation Xrotation
								JOINT RightFingerBase
								{
									OFFSET 0.000000 0.000000 0.000000
									CHANNELS 3 Zrotation Yrotation Xrotation
									JOINT RightHandIndex1
									{
										OFFSET -0.622530 -0.000000 -0.000000
										CHANNELS 3 Zrotation Yrotation Xrotation
										End Site
										{
											OFFSET 0.000000 0.000000 0.000000
										}
									}
								}
								JOINT RThumb
								{
									OFFSET 0.000000 0.000000 0.000000
									CHANNELS 3 Zrotation Yrotation Xrotation
									End Site
									{
										OFFSET 0.000000 0.000000 0.000000
									}
								}
							}
						}
					}
				}
			}
		}
	}
}
MOTION
Frames: 11
Frame Time: 0.008333
8.133065 17.840580 48.666447 -178.357386 15.866398 178.977985 -0.998441 4.090667 2.403085 -18.731620 -22.652989 3.025938 -2.664086 8.324104 24.279043 -5.424758 17.139783 -13.528347 0.495100 -4.511300 -12.519600 -2.866440 -3.853519 0.351132 22.407372 26.979565 2.932884 2.203346 -7.923940 24.368794 6.089279 -21.331710 -15.662612 -0.000100 0.071000 -0.195100 -0.605467 -1.879300 3.222644 5.200362 -1.631162 -8.354871 -0.445545 -0.900712 -12.835525 -6.774683 -7.136382 -20.008052 15.588846 -8.810056 34.919830 4.249300 -0.703400 13.957900 -0.340815 -10.470636 2.748930 -39.603939 -34.763831 17.947105 27.184555 -28.342978 -7.764824 1.410567 0.594265 22.129289 6.972160 -30.719167 -3.127900 -7.125000 0.000000 0.000000 -14.532500 -1.150100 15.318800 -1.152315 12.880815 2.748176 22.883952 40.128999 33.695645 -20.700714 24.517363 -6.665896 0.811559 1.033907 3.925075 -45.387512 -73.525090 44.765100 7.125000 0.000000 0.000000 -169.814700 -17.962700 6.653900 
8.125741 17.837273 48.666211 -178.369002 15.965481 178.871058 -0.993392 4.116589 2.437609 -18.799723 -22.587032 3.133256 -2.667122 8.310779 24.258316 -5.345523 16.961192 -13.517624 0.553900 -4.767400 -13.246500 -2.878755 -3.858462 0.356758 22.414544 26.913221 3.003785 2.189025 -7.934852 24.432499 6.052726 -21.232972 -15.658949 -0.000100 0.054500 -0.149700 -0.680653 -1.874943 3.121861 5.157704 -1.633553 -8.271415 -0.376807 -0.902258 -12.785310 -6.332356 -7.115451 -20.261501 14.922061 -8.726909 34.839783 3.920200 -0.737800 13.934000 -0.453180 -10.642828 2.606616 -38.579601 -37.940390 22.954199 22.573199 -22.863900 -5.527846 1.485601 0.843057 18.451159 10.976334 -29.526003 -5.104900 -7.125000 0.000000 0.000000 -12.265400 -0.712200 12.710300 -1.060455 13.052069 2.843744 23.838328 40.592291 32.090928 -19.934407 23.264658 -5.992390 1.357088 0.616034 7.269109 -7.100319 -57.018443 7.048400 7.125000 0.000000 0.000000 -14.955200 5.156800 -165.951800 
8.119127 17.837981 48.665857 -178.218552 16.047219 178.913165 -0.987948 4.121438 2.447701 -18.656105 -22.563279 3.104852 -2.658178 8.317269 24.281285 -5.302002 16.842670 -13.462412 0.640900 -5.121600 -14.255600 -2.886366 -3.858980 0.348538 22.574548 26.941744 3.055751 2.197931 -7.920464 24.387532 6.047447 -21.217389 -15.581902 -0.000500 0.147900 -0.406400 -0.562651 -1.891009 2.997919 5.149271 -1.640297 -8.308281 -0.423060 -0.914993 -12.747935 -6.401132 -7.218417 -20.613452 14.916704 -8.880775 34.900346 3.918900 -0.818400 14.059700 -0.471200 -10.703892 2.608003 -37.423829 -38.814132 26.599768 20.941206 -20.961407 -4.866231 1.411622 1.000244 14.499276 12.326446 -28.697529 -5.702300 -7.125000 0.000000 0.000000 -11.430700 -0.151800 11.695900 -1.049087 13.098471 2.822469 25.062145 41.023570 30.426653 -19.356234 22.391308 -5.762688 1.439554 0.547182 9.800954 -6.871334 -56.686121 6.877100 7.125000 0.000000 0.000000 -14.998000 5.500700 -166.009700 
8.112394 17.836446 48.666093 -178.090293 16.149710 178.898926 -0.978812 4.126906 2.470015 -18.522016 -22.425149 3.081056 -2.653514 8.313326 24.278303 -5.313454 16.846314 -13.377356 0.760500 -5.569400 -15.539900 -2.902081 -3.859143 0.338220 22.722385 26.914970 3.087730 2.195914 -7.924935 24.405264 6.005129 -21.113959 -15.550402 -0.001700 0.265200 -0.728500 -0.438367 -1.885246 2.948157 5.091256 -1.624964 -8.349094 -0.505315 -0.915589 -12.747611 -6.472524 -7.260159 -20.865713 15.065408 -8.982289 34.921909 3.978900 -0.852600 14.143100 -0.483888 -10.726666 2.637914 -37.646262 -38.738181 26.395364 20.896480 -20.881620 -4.844217 1.426375 0.998072 14.878239 12.401804 -28.706595 -5.741800 -7.125000 0.000000 0.000000 -11.392100 -0.181300 11.660700 -1.036607 13.114979 2.792411 26.304948 41.402031 28.891130 -18.897731 21.666242 -5.613586 1.511697 0.470385 12.082287 -8.710571 -56.951279 8.498400 7.125000 0.000000 0.000000 -14.333000 4.933300 -166.514700 
8.105070 17.833493 48.664793 -178.086531 16.273306 178.855282 -1.009177 4.171685 2.440357 -18.764161 -23.124207 3.530207 -2.692945 8.295663 24.221229 -5.499828 17.369380 -13.904001 0.628200 -5.071600 -14.113000 -2.906597 -3.878466 0.349355 22.711497 26.945010 3.097233 2.193407 -7.929171 24.408464 6.017704 -21.135854 -15.503985 -0.001300 0.235100 -0.645900 -0.408580 -1.852607 2.843860 4.957925 -1.588081 -8.396833 -0.560100 -0.896011 -12.704648 -6.633843 -7.247264 -20.883918 15.398376 -9.048660 34.712010 4.104100 -0.879200 14.076800 -0.492508 -10.777485 2.637699 -37.934619 -38.897199 25.946492 20.756856 -20.661580 -4.787329 1.462652 0.993536 15.731422 12.568082 -28.826069 -5.845400 -7.125000 0.000000 0.000000 -11.315700 -0.347000 11.612300 -1.005427 13.123687 2.790988 27.566992 41.762883 27.329800 -18.451571 20.905648 -5.400098 1.614404 0.355866 14.501814 -9.993752 -55.450840 9.502300 7.125000 0.000000 0.000000 -13.701300 6.087700 -167.456200 
8.095975 17.829359 48.664203 -178.046125 16.332557 178.841262 -1.093466 4.325401 2.338453 -19.535397 -25.517223 5.050807 -2.824054 8.229843 24.029998 -5.822860 18.485406 -15.765166 0.384900 -3.984300 -11.032500 -2.893879 -3.930859 0.389177 22.684537 26.972153 3.021812 2.183845 -7.959724 24.448845 6.053643 -21.215740 -15.423316 -0.001500 0.250900 -0.689400 -0.351591 -1.833898 2.754774 4.881601 -1.552179 -8.509525 -0.615024 -0.883648 -12.691955 -6.859554 -7.245483 -20.733145 15.652784 -9.088175 34.424891 4.198200 -0.919700 13.942600 -0.509073 -10.856397 2.651504 -38.394100 -39.065036 25.423939 20.592971 -20.397366 -4.724467 1.521157 0.975989 16.771024 12.482768 -29.097464 -5.833400 -7.125000 0.000000 0.000000 -11.405300 -0.621800 11.762900 -0.964802 13.150186 2.753733 29.819238 42.685095 23.600319 -17.414675 19.263957 -4.981115 1.774165 0.114232 20.087630 -9.908203 -53.393902 9.323100 7.125000 0.000000 0.000000 -13.503600 8.013400 -168.168500 
8.090423 17.827705 48.665384 -178.079794 16.425365 178.727253 -1.081308 4.336124 2.365711 -19.606012 -25.371194 5.129672 -2.831612 8.208993 23.986611 -5.807333 18.448810 -15.729167 0.419900 -4.159100 -11.524800 -2.902408 -3.939572 0.386992 22.690384 26.990358 3.098712 2.167166 -7.981670 24.530896 6.022898 -21.143069 -15.459540 -0.000500 0.145200 -0.399000 -0.513575 -1.844404 2.758101 4.943965 -1.569653 -8.548606 -0.512092 -0.876950 -12.710334 -7.019514 -7.250107 -20.701642 15.570460 -9.049390 34.270685 4.176900 -0.959100 13.867700 -0.533211 -10.886674 2.658206 -39.004970 -39.183829 24.569519 20.429482 -20.120509 -4.664861 1.592511 0.953221 18.070415 12.416189 -29.527480 -5.854600 -7.125000 0.000000 0.000000 -11.499900 -1.062200 11.952800 -0.951973 13.161839 2.753879 30.186304 42.862314 23.471803 -17.316761 19.075020 -4.909731 1.802236 0.083187 20.691736 -8.921117 -52.469663 8.445200 7.125000 0.000000 0.000000 -13.827100 9.055100 -168.162000 
8.088415 17.826642 48.666093 -178.212156 16.501163 178.582971 -1.068047 4.340320 2.390445 -19.759865 -25.179838 5.186358 -2.835220 8.193914 23.960127 -5.792281 18.420788 -15.685665 0.444300 -4.276700 -11.856500 -2.901902 -3.949403 0.395025 22.590793 27.027967 3.178181 2.153844 -7.994326 24.597316 5.953774 -20.963032 -15.538362 -0.000000 -0.018000 0.049400 -0.903325 -1.864921 2.735408 5.058232 -1.621189 -8.517196 -0.257444 -0.865492 -12.703337 -6.958310 -7.250308 -21.120303 15.228207 -8.981954 34.306448 4.045000 -0.984200 13.955500 -0.568248 -10.910150 2.669730 -39.251389 -39.319159 24.099394 20.218528 -19.826404 -4.592518 1.629518 0.954927 18.544858 12.539025 -29.882520 -5.973700 -7.125000 0.000000 0.000000 -11.470900 -1.455700 11.999300 -0.961630 13.206310 2.713190 30.694950 43.204389 22.795449 -17.142614 18.811918 -4.907824 1.816163 0.056363 21.982654 -8.714203 -53.315952 8.374400 7.125000 0.000000 0.000000 -13.962400 8.299500 -167.822300 
8.083926 17.827469 48.663140 -178.233574 16.595496 178.598245 -1.070119 4.330685 2.386362 -19.798394 -25.142569 5.166846 -2.838447 8.193186 23.959847 -5.818990 18.498533 -15.744637 0.429100 -4.204000 -11.651300 -2.899279 -3.939276 0.395527 22.465186 26.876299 3.023755 2.145511 -8.002942 24.612713 5.886781 -20.730937 -15.358801 -0.000100 -0.045700 0.125600 -1.034758 -1.857434 2.584805 5.101668 -1.611817 -8.544117 -0.181157 -0.850868 -12.627373 -7.037882 -7.257951 -21.428559 15.167894 -8.982421 34.174614 4.019200 -1.031100 13.967300 -0.592911 -10.939781 2.677071 -39.682612 -39.439984 23.542415 20.138693 -19.668994 -4.565568 1.674279 0.940653 19.321067 12.527706 -30.140629 -6.000600 -7.125000 0.000000 0.000000 -11.513400 -1.726400 12.099100 -0.969627 13.214679 2.703675 30.615506 43.110305 23.375694 -17.182074 18.938613 -5.035789 1.779739 0.113803 21.070404 -11.266599 -55.546556 10.694500 7.125000 0.000000 0.000000 -13.172400 5.759900 -167.883900 
8.076248 17.825933 48.657352 -178.148495 16.724944 178.617088 -1.069428 4.334293 2.382750 -19.800608 -25.215636 5.219412 -2.836128 8.205800 23.997925 -5.879451 18.664504 -15.864403 0.425000 -4.183800 -11.594500 -2.904971 -3.937536 0.394427 22.465257 26.712930 2.928881 2.142932 -7.998619 24.583049 5.897137 -20.692327 -15.056288 -0.000500 0.145100 -0.398500 -0.937349 -1.848876 2.459644 5.105638 -1.586464 -8.580400 -0.242203 -0.849435 -12.558258 -7.263124 -7.241557 -21.638677 15.439857 -9.008245 33.963222 4.136000 -1.062200 13.936800 -0.608561 -10.970532 2.679359 -40.038686 -39.527414 23.007704 20.070997 -19.531636 -4.537209 1.711217 0.925934 20.162897 12.590067 -30.209171 -6.040000 -7.125000 0.000000 0.000000 -11.495100 -1.821200 12.097800 -0.962533 13.200288 2.736940 30.577007 42.983240 24.200852 -17.308691 19.092379 -5.036728 1.783225 0.136075 20.216360 -10.109613 -54.750155 9.644100 7.125000 0.000000 0.000000 -13.536500 6.709700 -167.783200 
8.068452 17.819554 48.652391 -177.995843 16.879567 178.541090 -1.054629 4.363963 2.398732 -19.821464 -25.352491 5.413241 -2.829324 8.228067 24.079927 -5.895891 18.756464 -16.100063 0.429700 -4.206800 -11.659300 -2.916977 -3.953569 0.398078 22.646001 26.662061 3.052791 2.147226 -7.976035 24.530303 5.880951 -20.609481 -14.803672 -0.000500 0.143300 -0.393600 -0.842136 -1.827042 2.477176 5.148349 -1.543705 -8.574888 -0.290835 -0.841175 -12.572461 -7.411996 -7.237340 -21.896564 15.613090 -9.028480 33.901702 4.220500 -1.077500 13.974200 -0.631081 -10.994239 2.671268 -40.453264 -39.659332 22.171579 20.002807 -19.392571 -4.513357 1.764507 0.896376 21.640797 12.694707 -30.389371 -6.121000 -7.125000 0.000000 0.000000 -11.464800 -2.040700 12.107400 -0.954278 13.201759 2.774127 30.764296 43.032181 24.562532 -17.368290 19.081896 -4.932090 1.818077 0.116230 20.280676 -7.261713 -52.298379 7.105900 7.125000 0.000000 0.000000 -14.498500 9.504900 -167.683000 
